{"glyphs":{"0":{"ha":964,"x_min":47,"x_max":917,"o":"m 481 867 q 695 811 591 867 q 858 650 799 755 q 917 433 917 546 q 860 217 917 320 q 699 56 802 113 q 481 -1 595 -1 q 266 56 369 -1 q 105 217 162 113 q 47 433 47 320 q 105 650 47 546 q 268 811 163 755 q 481 867 372 867 m 483 651 q 375 623 427 651 q 294 543 323 595 q 265 434 265 491 q 294 326 265 377 q 374 245 323 274 q 483 217 426 217 q 591 245 539 217 q 671 326 643 274 q 700 434 700 377 q 671 543 700 491 q 589 623 642 595 q 483 651 537 651 m 481 540 q 534 526 509 540 q 575 486 560 512 q 589 431 589 460 q 575 378 589 404 q 535 338 561 353 q 481 324 510 324 q 427 338 453 324 q 388 378 401 353 q 374 431 374 404 q 388 486 374 460 q 428 526 402 512 q 481 540 454 540 z "},"1":{"ha":637,"x_min":48,"x_max":593,"o":"m 157 0 q 48 110 49 2 q 157 218 48 218 l 212 218 l 212 650 q 106 758 104 649 q 213 867 106 863 l 323 867 q 429 761 429 867 l 429 218 l 484 218 q 593 106 593 217 q 492 1 593 3 l 157 0 z "},"2":{"ha":856,"x_min":48,"x_max":809,"o":"m 430 867 q 809 433 808 867 q 701 326 809 325 l 266 326 q 428 216 267 217 l 701 218 q 809 109 807 217 q 701 0 808 0 l 429 0 q 48 434 49 1 q 157 543 49 542 l 591 542 q 431 650 591 650 l 158 650 q 48 760 50 652 q 157 867 51 867 l 430 867 z "},"3":{"ha":856,"x_min":48,"x_max":808,"o":"m 157 867 l 536 867 q 727 786 644 867 q 808 600 808 706 l 808 596 q 751 435 806 487 q 808 275 808 379 l 808 271 q 725 82 807 164 q 543 0 644 0 l 154 0 q 48 109 48 0 q 157 216 48 216 l 535 218 q 590 271 590 218 q 536 326 590 326 l 372 327 q 263 441 262 327 q 372 543 263 544 l 536 542 q 589 602 591 542 q 536 650 591 650 l 157 650 q 48 759 48 650 q 157 867 48 867 z "},"4":{"ha":847,"x_min":40,"x_max":800,"o":"m 149 -1 q 95 13 121 -1 q 55 53 69 26 q 40 107 40 79 q 145 347 40 136 q 263 583 250 557 q 303 624 277 609 q 358 638 330 638 q 412 624 386 638 q 452 583 437 609 q 468 526 467 557 q 323 218 469 494 l 581 218 l 581 762 q 690 869 581 868 q 800 762 798 868 l 798 -109 q 690 -218 798 -215 q 581 -109 581 -214 l 581 -1 l 149 -1 z "},"5":{"ha":856,"x_min":47,"x_max":808,"o":"m 701 867 q 808 760 806 867 q 699 650 806 652 l 264 650 l 263 541 l 700 543 q 808 434 808 542 q 427 0 808 1 l 157 0 q 48 109 49 0 q 156 218 50 217 l 429 216 q 591 326 590 217 l 157 326 q 48 433 47 325 l 47 760 q 156 867 49 867 l 701 867 z "},"6":{"ha":842,"x_min":48,"x_max":808,"o":"m 592 867 q 701 760 700 867 q 593 651 701 652 l 319 651 q 264 596 264 650 l 265 542 l 536 543 q 728 460 646 542 q 808 273 808 379 l 808 271 q 727 81 807 163 q 541 1 648 1 l 538 1 l 319 1 q 130 81 212 1 q 48 273 49 162 l 48 600 q 130 787 48 705 q 317 867 211 867 l 592 867 m 266 326 l 266 272 q 319 216 267 216 l 538 216 q 593 271 593 218 q 538 326 594 326 l 266 326 z "},"7":{"ha":830,"x_min":40,"x_max":798,"o":"m 692 866 q 744 853 720 866 q 784 814 769 840 q 798 760 798 788 q 635 406 798 732 q 458 54 473 79 q 418 14 444 28 q 364 -1 392 -1 q 310 14 336 -1 q 270 54 283 28 q 255 106 256 79 q 515 650 255 131 l 149 650 q 40 758 40 652 l 40 760 q 146 866 40 866 l 692 866 z "},"8":{"ha":853,"x_min":48,"x_max":808,"o":"m 535 218 q 590 271 590 218 q 536 326 590 326 l 318 326 q 264 272 264 326 q 318 216 265 216 l 535 218 m 318 867 l 536 867 q 727 786 644 867 q 808 600 808 706 l 808 596 q 751 435 806 487 q 808 275 808 379 l 808 271 q 725 82 807 164 q 543 0 644 0 l 317 0 q 130 81 211 0 q 48 271 48 163 q 103 433 48 379 q 48 597 49 487 q 130 784 48 704 q 318 867 212 864 m 536 542 q 589 602 591 542 q 536 650 591 650 l 318 650 q 264 596 264 650 q 318 542 264 542 l 536 542 z "},"9":{"ha":853,"x_min":49,"x_max":808,"o":"m 264 1 q 156 108 157 1 q 263 217 155 216 l 537 217 q 592 272 592 218 l 591 326 l 320 326 q 130 409 210 327 q 49 596 49 490 l 49 598 q 130 787 50 705 q 315 867 208 867 l 537 867 q 727 787 645 867 q 808 596 808 706 l 808 268 q 727 82 808 163 q 539 1 646 1 l 264 1 m 591 543 l 591 596 q 538 652 591 652 l 318 652 q 264 597 263 650 q 319 543 263 542 l 591 543 z "}," ":{"ha":677,"x_min":0,"x_max":0,"o":""},"!":{"ha":433,"x_min":107,"x_max":324,"o":"m 216 324 q 107 433 109 324 l 107 867 q 216 975 107 975 l 217 975 q 324 866 324 975 l 324 432 q 216 324 323 324 m 216 0 q 162 14 188 0 q 122 54 136 28 q 108 108 108 79 q 122 161 108 135 q 161 201 136 186 q 216 215 187 215 q 270 201 244 215 q 309 161 295 186 q 323 108 323 135 q 309 54 323 79 q 269 14 294 28 q 216 0 243 0 z "},"\"":{"ha":618,"x_min":54,"x_max":560,"o":"m 163 1018 q 271 909 271 1018 l 271 747 q 164 637 271 637 l 163 637 q 54 745 54 637 l 54 909 q 163 1018 56 1018 m 452 1018 q 560 909 559 1018 l 560 747 q 453 637 560 637 l 452 637 q 343 745 343 637 l 343 909 q 452 1018 345 1018 z "},"#":{"ha":772,"x_min":0,"x_max":0,"o":""},"$":{"ha":772,"x_min":0,"x_max":0,"o":""},"%":{"ha":1235,"x_min":0,"x_max":0,"o":""},"&":{"ha":926,"x_min":0,"x_max":0,"o":""},"'":{"ha":320,"x_min":54,"x_max":271,"o":"m 163 1018 q 271 909 271 1018 l 271 747 q 164 637 271 637 l 163 637 q 54 745 54 637 l 54 909 q 163 1018 56 1018 z "},"(":{"ha":463,"x_min":0,"x_max":0,"o":""},")":{"ha":463,"x_min":0,"x_max":0,"o":""},"*":{"ha":541,"x_min":0,"x_max":0,"o":""},"+":{"ha":811,"x_min":0,"x_max":0,"o":""},",":{"ha":433,"x_min":107,"x_max":324,"o":"m 216 213 q 324 104 323 213 l 324 -58 q 217 -167 324 -167 l 216 -167 q 107 -60 107 -167 l 107 104 q 216 213 109 213 z "},"-":{"ha":570,"x_min":69,"x_max":505,"o":"m 69 512 q 176 623 71 621 l 395 623 q 505 513 503 621 q 395 405 503 405 l 176 405 q 69 512 70 405 z "},".":{"ha":433,"x_min":108,"x_max":323,"o":"m 216 216 q 269 202 243 216 q 309 163 294 189 q 323 108 323 137 q 309 55 323 81 q 270 15 295 29 q 216 1 244 1 q 162 15 188 1 q 122 55 136 29 q 108 108 108 81 q 122 163 108 137 q 162 202 136 189 q 216 216 188 216 z "},"/":{"ha":386,"x_min":0,"x_max":0,"o":""},":":{"ha":433,"x_min":108,"x_max":323,"o":"m 216 680 q 269 666 243 680 q 309 627 294 652 q 323 572 323 601 q 309 519 323 545 q 270 479 295 493 q 216 465 244 465 q 162 479 188 465 q 122 519 136 493 q 108 572 108 545 q 122 627 108 601 q 162 666 136 652 q 216 680 188 680 m 216 288 q 269 273 243 288 q 309 233 294 259 q 323 179 323 208 q 309 125 323 151 q 270 85 295 100 q 216 71 244 71 q 162 85 188 71 q 122 125 136 100 q 108 179 108 151 q 122 233 108 208 q 162 273 136 259 q 216 288 188 288 z "},";":{"ha":433,"x_min":108,"x_max":325,"o":"m 216 680 q 269 666 243 680 q 310 627 295 652 q 324 572 324 601 q 310 519 324 545 q 270 479 296 493 q 216 465 245 465 q 163 479 189 465 q 123 519 137 493 q 109 572 109 545 q 123 627 109 601 q 163 666 137 652 q 216 680 189 680 m 216 213 q 325 104 324 213 l 325 -58 q 218 -167 325 -167 l 216 -167 q 108 -60 108 -167 l 108 104 q 216 213 109 213 z "},"<":{"ha":811,"x_min":0,"x_max":0,"o":""},"=":{"ha":811,"x_min":0,"x_max":0,"o":""},">":{"ha":811,"x_min":0,"x_max":0,"o":""},"?":{"ha":842,"x_min":82,"x_max":732,"o":"m 353 977 q 732 705 732 977 l 732 703 q 458 435 732 434 q 404 378 406 435 q 296 272 404 270 q 187 382 186 271 q 269 571 188 490 q 459 650 351 652 q 515 705 515 651 q 460 759 515 760 l 192 759 q 82 869 84 762 q 191 977 85 977 l 353 977 m 298 216 q 351 202 326 216 q 392 162 377 188 q 406 108 406 136 q 392 55 406 81 q 352 15 378 29 q 298 1 327 1 q 245 15 271 1 q 205 55 219 29 q 191 108 191 81 q 205 162 191 136 q 245 202 219 188 q 298 216 271 216 z "},"@":{"ha":1410,"x_min":0,"x_max":0,"o":""},"A":{"ha":966,"x_min":49,"x_max":916,"o":"m 157 -1 q 104 13 130 -1 q 63 53 78 27 q 49 108 49 79 q 211 462 49 136 q 387 814 373 788 q 428 854 401 840 q 481 869 454 869 q 536 854 510 869 q 576 814 562 840 q 753 462 590 788 q 916 108 916 136 q 902 53 916 79 q 861 13 887 27 q 808 -1 835 -1 l 157 -1 m 631 218 l 481 524 l 332 218 l 631 218 z "},"B":{"ha":856,"x_min":48,"x_max":808,"o":"m 157 867 l 536 867 q 727 786 644 867 q 808 600 808 706 l 808 596 q 751 435 806 487 q 808 275 808 379 l 808 271 q 725 82 807 164 q 543 0 644 0 l 154 0 q 48 109 48 0 l 48 759 q 157 867 48 867 m 266 650 l 266 218 l 535 218 q 590 271 590 218 q 536 326 590 326 l 483 327 q 374 441 373 327 q 482 543 374 544 l 536 542 q 589 602 591 542 q 536 650 591 650 l 266 650 z "},"C":{"ha":856,"x_min":48,"x_max":808,"o":"m 481 867 l 699 867 q 808 760 807 865 q 699 650 807 650 l 482 650 q 266 433 266 652 q 483 216 266 218 l 699 216 q 807 109 807 214 q 700 0 807 1 l 483 0 q 48 434 49 0 q 480 867 48 867 l 481 867 z "},"D":{"ha":964,"x_min":48,"x_max":917,"o":"m 157 867 l 482 867 q 917 433 917 867 q 494 0 916 1 l 157 0 q 48 109 48 -1 l 48 759 q 157 867 48 867 m 266 650 l 266 218 l 484 218 q 698 435 699 216 q 483 650 699 649 l 266 650 z "},"E":{"ha":856,"x_min":48,"x_max":808,"o":"m 157 869 l 706 867 q 808 762 807 866 q 698 650 808 652 l 266 650 l 266 218 l 697 218 q 806 108 806 217 q 699 0 806 1 l 157 0 q 48 105 49 0 l 48 759 q 157 869 49 867 m 318 431 q 425 541 319 540 l 644 541 q 753 433 752 541 q 644 324 751 324 l 426 324 q 318 431 318 323 z "},"F":{"ha":856,"x_min":48,"x_max":808,"o":"m 157 869 l 706 867 q 808 762 807 866 q 698 650 808 652 l 266 650 l 266 543 l 700 543 q 808 434 807 541 q 700 326 806 326 l 266 325 l 266 108 q 157 0 265 1 q 48 105 49 0 l 48 759 q 157 869 49 867 z "},"G":{"ha":964,"x_min":47,"x_max":917,"o":"m 481 867 l 700 868 q 807 758 806 867 q 700 652 806 651 l 483 651 q 375 623 427 651 q 294 543 323 595 q 265 434 265 491 q 294 326 265 377 q 374 245 323 274 q 483 217 426 217 q 597 244 539 217 q 681 327 654 271 l 590 327 q 480 433 480 326 q 589 543 480 542 l 806 543 q 917 433 916 540 q 860 217 917 320 q 699 56 802 113 q 481 -1 595 -1 q 266 56 369 -1 q 105 217 162 113 q 47 433 47 320 q 105 650 47 546 q 268 811 163 755 q 481 867 372 867 z "},"H":{"ha":856,"x_min":48,"x_max":808,"o":"m 699 869 q 808 760 807 869 l 807 109 q 699 0 807 0 l 698 0 q 590 107 589 0 l 590 326 l 431 326 q 318 433 319 326 q 431 542 318 543 l 590 544 l 590 760 q 699 869 590 869 m 157 869 q 266 760 266 868 l 265 109 q 156 0 264 1 q 48 108 48 1 l 48 759 q 157 869 48 867 z "},"I":{"ha":315,"x_min":48,"x_max":267,"o":"m 156 867 q 267 760 264 866 l 267 107 q 157 -3 265 -1 q 49 107 49 0 l 49 759 q 156 867 48 867 z "},"J":{"ha":482,"x_min":51,"x_max":429,"o":"m 321 869 q 429 759 429 867 l 429 269 q 375 55 429 109 q 159 0 321 0 q 51 108 52 1 q 159 218 51 217 q 212 270 212 216 l 211 762 q 321 869 212 866 z "},"K":{"ha":856,"x_min":48,"x_max":808,"o":"m 699 869 q 781 842 752 869 q 808 765 808 817 l 808 760 q 750 652 808 703 l 551 435 l 751 218 q 808 116 808 165 q 807 109 808 113 l 807 100 q 781 26 807 52 q 701 0 751 0 l 698 0 q 614 28 642 0 q 480 184 587 56 q 347 344 374 312 q 318 433 319 376 q 346 521 318 486 q 482 686 374 555 q 617 843 590 817 q 699 869 645 869 m 157 869 q 266 760 266 868 l 265 109 q 156 0 264 1 q 48 108 48 1 l 48 759 q 157 869 48 867 z "},"L":{"ha":842,"x_min":48,"x_max":806,"o":"m 157 869 q 267 762 266 866 l 266 218 l 697 218 q 806 108 806 217 q 699 0 806 1 l 157 0 q 48 105 49 0 l 48 759 q 157 869 49 867 z "},"M":{"ha":966,"x_min":48,"x_max":918,"o":"m 157 867 q 238 840 212 866 q 484 594 264 813 q 728 839 701 811 q 808 867 755 867 q 917 760 916 867 l 918 109 q 808 -1 918 0 q 699 109 701 -1 l 699 492 q 563 352 589 380 q 482 325 536 325 q 402 353 430 325 q 266 490 374 381 l 266 109 q 157 0 265 1 q 49 109 48 -1 l 49 760 q 157 867 49 867 z "},"N":{"ha":856,"x_min":49,"x_max":808,"o":"m 172 867 q 267 822 231 862 l 591 408 l 591 772 q 684 867 593 865 q 807 769 806 865 l 808 94 q 684 0 807 1 q 593 45 628 1 l 267 458 l 267 94 q 172 0 266 1 q 49 96 50 0 l 49 772 q 172 867 49 866 z "},"O":{"ha":966,"x_min":47,"x_max":917,"o":"m 481 867 q 695 811 591 867 q 858 650 799 755 q 917 433 917 546 q 860 217 917 320 q 699 56 802 113 q 481 -1 595 -1 q 266 56 369 -1 q 105 217 162 113 q 47 433 47 320 q 105 650 47 546 q 268 811 163 755 q 481 867 372 867 m 483 651 q 375 623 427 651 q 294 543 323 595 q 265 434 265 491 q 294 326 265 377 q 374 245 323 274 q 483 217 426 217 q 591 245 539 217 q 671 326 643 274 q 700 434 700 377 q 671 543 700 491 q 589 623 642 595 q 483 651 537 651 z "},"P":{"ha":856,"x_min":48,"x_max":807,"o":"m 157 867 l 538 867 q 725 787 642 867 q 807 600 807 707 l 807 597 q 726 405 807 485 q 534 326 645 326 l 427 324 q 319 434 319 324 q 429 543 319 544 l 505 544 q 590 596 591 543 q 505 650 590 650 l 266 650 l 266 109 q 157 0 267 0 q 48 107 48 0 l 48 760 q 157 867 49 867 z "},"Q":{"ha":966,"x_min":47,"x_max":918,"o":"m 481 867 q 695 811 591 867 q 858 650 799 755 q 917 433 917 546 q 829 216 917 320 q 918 108 914 217 q 808 -1 918 -1 l 481 -1 q 266 56 369 -1 q 105 217 162 113 q 47 433 47 320 q 105 650 47 546 q 268 811 163 755 q 481 867 372 867 m 483 651 q 375 623 427 651 q 294 543 323 595 q 265 434 265 491 q 294 326 265 377 q 374 245 323 274 q 483 217 426 217 q 591 245 539 217 q 671 326 643 274 q 700 434 700 377 q 671 543 700 491 q 589 623 642 595 q 483 651 537 651 z "},"R":{"ha":856,"x_min":48,"x_max":809,"o":"m 157 867 l 538 867 q 726 785 644 867 q 807 597 808 703 q 766 408 807 485 q 643 328 725 330 l 777 192 q 809 108 809 160 q 701 0 807 0 l 698 0 q 591 53 644 0 l 374 322 q 319 434 319 380 q 429 543 319 544 l 505 544 q 590 596 591 543 q 505 650 590 650 l 266 650 l 266 109 q 157 0 267 0 q 48 107 48 0 l 48 760 q 157 867 49 867 z "},"S":{"ha":856,"x_min":48,"x_max":810,"o":"m 809 760 q 705 650 809 651 l 374 651 q 264 595 264 650 q 375 545 265 544 l 481 545 q 810 269 809 543 q 482 1 810 3 l 156 1 q 48 108 48 2 q 155 214 49 216 l 482 216 q 592 272 592 217 q 481 327 592 328 l 374 327 q 48 595 48 328 l 48 599 q 374 868 48 867 l 701 868 q 809 760 808 867 z "},"T":{"ha":839,"x_min":39,"x_max":799,"o":"m 148 869 l 697 867 q 799 762 798 866 q 689 650 799 652 l 527 650 l 528 108 q 418 0 526 1 q 310 105 310 0 l 311 650 l 148 650 q 39 759 39 650 q 148 869 40 867 z "},"U":{"ha":859,"x_min":51,"x_max":812,"o":"m 159 869 q 269 764 268 869 l 268 433 q 433 216 269 216 q 595 434 595 217 l 595 760 q 704 869 596 868 q 812 760 812 867 l 812 433 q 433 0 812 0 q 51 433 52 -3 l 51 760 q 159 869 52 867 z "},"V":{"ha":938,"x_min":35,"x_max":902,"o":"m 793 869 q 847 854 821 869 q 887 814 873 840 q 902 760 902 788 q 739 406 902 732 q 562 54 576 79 q 522 14 547 28 q 467 -1 496 -1 q 413 14 439 -1 q 373 54 387 28 q 197 406 359 79 q 35 760 35 732 q 49 814 35 788 q 90 854 64 840 q 143 869 115 869 q 196 854 170 869 q 237 814 222 840 q 467 344 252 788 q 700 814 685 788 q 740 854 714 840 q 793 869 766 869 z "},"W":{"ha":966,"x_min":48,"x_max":917,"o":"m 156 -1 q 48 106 48 -1 l 48 758 q 154 866 48 866 l 157 866 q 265 758 264 865 l 265 376 q 401 513 374 485 q 481 541 429 541 q 562 514 535 541 q 698 374 589 486 l 698 758 q 807 867 700 867 q 917 758 917 865 l 916 106 q 808 -1 916 -1 q 727 26 754 -1 q 483 271 700 54 q 237 26 263 53 q 156 -1 211 0 z "},"X":{"ha":862,"x_min":49,"x_max":818,"o":"m 157 869 q 239 843 212 869 q 432 616 267 817 q 628 846 600 820 q 709 872 655 872 q 791 845 762 872 q 818 768 818 819 l 818 763 q 760 655 818 705 l 576 437 l 761 222 q 818 119 818 168 q 817 111 818 115 l 817 102 q 791 29 817 54 q 708 3 761 1 q 624 31 652 2 q 435 256 596 60 q 242 28 270 56 q 159 0 214 0 l 156 0 q 77 26 105 0 q 50 100 50 52 l 50 109 q 49 116 49 113 q 106 218 49 165 l 299 435 l 106 652 q 49 760 49 703 l 49 765 q 76 842 49 817 q 157 869 104 869 z "},"Y":{"ha":847,"x_min":40,"x_max":809,"o":"m 149 869 q 230 843 203 869 q 423 616 258 817 q 619 846 591 820 q 701 872 646 872 q 782 845 753 872 q 809 769 809 819 l 809 763 q 751 655 809 705 l 530 396 l 529 108 q 420 0 527 1 l 415 0 q 313 111 313 0 l 311 397 l 98 652 q 40 760 40 703 l 40 766 q 67 842 40 817 q 149 869 96 869 z "},"Z":{"ha":856,"x_min":48,"x_max":808,"o":"m 808 745 q 764 650 804 686 l 397 216 l 713 216 q 808 124 806 214 q 711 1 806 2 l 143 0 q 48 124 50 1 q 93 215 50 180 l 462 650 l 143 650 q 48 745 50 651 q 144 868 48 867 l 715 868 q 808 745 808 868 z "},"[":{"ha":386,"x_min":0,"x_max":0,"o":""},"\\":{"ha":386,"x_min":0,"x_max":0,"o":""},"]":{"ha":386,"x_min":0,"x_max":0,"o":""},"^":{"ha":652,"x_min":0,"x_max":0,"o":""},"_":{"ha":772,"x_min":0,"x_max":0,"o":""},"`":{"ha":420,"x_min":98,"x_max":370,"o":"m 144 1222 q 273 1145 220 1222 l 350 1028 q 370 980 370 998 q 323 952 370 952 l 323 952 q 195 1029 246 952 l 119 1145 q 98 1194 98 1175 q 144 1222 98 1222 z "},"a":{"ha":966,"x_min":49,"x_max":916,"o":"m 157 -1 q 104 13 130 -1 q 63 53 78 27 q 49 108 49 79 q 211 462 49 136 q 387 814 373 788 q 428 854 401 840 q 481 869 454 869 q 536 854 510 869 q 576 814 562 840 q 753 462 590 788 q 916 108 916 136 q 902 53 916 79 q 861 13 887 27 q 808 -1 835 -1 l 157 -1 m 631 218 l 481 524 l 332 218 l 631 218 z "},"b":{"ha":856,"x_min":48,"x_max":808,"o":"m 157 867 l 536 867 q 727 786 644 867 q 808 600 808 706 l 808 596 q 751 435 806 487 q 808 275 808 379 l 808 271 q 725 82 807 164 q 543 0 644 0 l 154 0 q 48 109 48 0 l 48 759 q 157 867 48 867 m 266 650 l 266 218 l 535 218 q 590 271 590 218 q 536 326 590 326 l 483 327 q 374 441 373 327 q 482 543 374 544 l 536 542 q 589 602 591 542 q 536 650 591 650 l 266 650 z "},"c":{"ha":856,"x_min":48,"x_max":808,"o":"m 481 867 l 699 867 q 808 760 807 865 q 699 650 807 650 l 482 650 q 266 433 266 652 q 483 216 266 218 l 699 216 q 807 109 807 214 q 700 0 807 1 l 483 0 q 48 434 49 0 q 480 867 48 867 l 481 867 z "},"d":{"ha":964,"x_min":48,"x_max":917,"o":"m 157 867 l 482 867 q 917 433 917 867 q 494 0 916 1 l 157 0 q 48 109 48 -1 l 48 759 q 157 867 48 867 m 266 650 l 266 218 l 484 218 q 698 435 699 216 q 483 650 699 649 l 266 650 z "},"e":{"ha":856,"x_min":48,"x_max":808,"o":"m 157 869 l 706 867 q 808 762 807 866 q 698 650 808 652 l 266 650 l 266 218 l 697 218 q 806 108 806 217 q 699 0 806 1 l 157 0 q 48 105 49 0 l 48 759 q 157 869 49 867 m 318 431 q 425 541 319 540 l 644 541 q 753 433 752 541 q 644 324 751 324 l 426 324 q 318 431 318 323 z "},"f":{"ha":856,"x_min":48,"x_max":808,"o":"m 157 869 l 706 867 q 808 762 807 866 q 698 650 808 652 l 266 650 l 266 543 l 700 543 q 808 434 807 541 q 700 326 806 326 l 266 325 l 266 108 q 157 0 265 1 q 48 105 49 0 l 48 759 q 157 869 49 867 z "},"g":{"ha":964,"x_min":47,"x_max":917,"o":"m 481 867 l 700 868 q 807 758 806 867 q 700 652 806 651 l 483 651 q 375 623 427 651 q 294 543 323 595 q 265 434 265 491 q 294 326 265 377 q 374 245 323 274 q 483 217 426 217 q 597 244 539 217 q 681 327 654 271 l 590 327 q 480 433 480 326 q 589 543 480 542 l 806 543 q 917 433 916 540 q 860 217 917 320 q 699 56 802 113 q 481 -1 595 -1 q 266 56 369 -1 q 105 217 162 113 q 47 433 47 320 q 105 650 47 546 q 268 811 163 755 q 481 867 372 867 z "},"h":{"ha":856,"x_min":48,"x_max":808,"o":"m 699 869 q 808 760 807 869 l 807 109 q 699 0 807 0 l 698 0 q 590 107 589 0 l 590 326 l 431 326 q 318 433 319 326 q 431 542 318 543 l 590 544 l 590 760 q 699 869 590 869 m 157 869 q 266 760 266 868 l 265 109 q 156 0 264 1 q 48 108 48 1 l 48 759 q 157 869 48 867 z "},"i":{"ha":315,"x_min":48,"x_max":267,"o":"m 156 867 q 267 760 264 866 l 267 107 q 157 -3 265 -1 q 49 107 49 0 l 49 759 q 156 867 48 867 z "},"j":{"ha":482,"x_min":51,"x_max":429,"o":"m 321 869 q 429 759 429 867 l 429 269 q 375 55 429 109 q 159 0 321 0 q 51 108 52 1 q 159 218 51 217 q 212 270 212 216 l 211 762 q 321 869 212 866 z "},"k":{"ha":856,"x_min":48,"x_max":808,"o":"m 699 869 q 781 842 752 869 q 808 765 808 817 l 808 760 q 750 652 808 703 l 551 435 l 751 218 q 808 116 808 165 q 807 109 808 113 l 807 100 q 781 26 807 52 q 701 0 751 0 l 698 0 q 614 28 642 0 q 480 184 587 56 q 347 344 374 312 q 318 433 319 376 q 346 521 318 486 q 482 686 374 555 q 617 843 590 817 q 699 869 645 869 m 157 869 q 266 760 266 868 l 265 109 q 156 0 264 1 q 48 108 48 1 l 48 759 q 157 869 48 867 z "},"l":{"ha":842,"x_min":48,"x_max":806,"o":"m 157 869 q 267 762 266 866 l 266 218 l 697 218 q 806 108 806 217 q 699 0 806 1 l 157 0 q 48 105 49 0 l 48 759 q 157 869 49 867 z "},"m":{"ha":966,"x_min":48,"x_max":918,"o":"m 157 867 q 238 840 212 866 q 484 594 264 813 q 728 839 701 811 q 808 867 755 867 q 917 760 916 867 l 918 109 q 808 -1 918 0 q 699 109 701 -1 l 699 492 q 563 352 589 380 q 482 325 536 325 q 402 353 430 325 q 266 490 374 381 l 266 109 q 157 0 265 1 q 49 109 48 -1 l 49 760 q 157 867 49 867 z "},"n":{"ha":856,"x_min":49,"x_max":808,"o":"m 172 867 q 267 822 231 862 l 591 408 l 591 772 q 684 867 593 865 q 807 769 806 865 l 808 94 q 684 0 807 1 q 593 45 628 1 l 267 458 l 267 94 q 172 0 266 1 q 49 96 50 0 l 49 772 q 172 867 49 866 z "},"o":{"ha":966,"x_min":47,"x_max":917,"o":"m 481 867 q 695 811 591 867 q 858 650 799 755 q 917 433 917 546 q 860 217 917 320 q 699 56 802 113 q 481 -1 595 -1 q 266 56 369 -1 q 105 217 162 113 q 47 433 47 320 q 105 650 47 546 q 268 811 163 755 q 481 867 372 867 m 483 651 q 375 623 427 651 q 294 543 323 595 q 265 434 265 491 q 294 326 265 377 q 374 245 323 274 q 483 217 426 217 q 591 245 539 217 q 671 326 643 274 q 700 434 700 377 q 671 543 700 491 q 589 623 642 595 q 483 651 537 651 z "},"p":{"ha":856,"x_min":48,"x_max":807,"o":"m 157 867 l 538 867 q 725 787 642 867 q 807 600 807 707 l 807 597 q 726 405 807 485 q 534 326 645 326 l 427 324 q 319 434 319 324 q 429 543 319 544 l 505 544 q 590 596 591 543 q 505 650 590 650 l 266 650 l 266 109 q 157 0 267 0 q 48 107 48 0 l 48 760 q 157 867 49 867 z "},"q":{"ha":966,"x_min":47,"x_max":918,"o":"m 481 867 q 695 811 591 867 q 858 650 799 755 q 917 433 917 546 q 829 216 917 320 q 918 108 914 217 q 808 -1 918 -1 l 481 -1 q 266 56 369 -1 q 105 217 162 113 q 47 433 47 320 q 105 650 47 546 q 268 811 163 755 q 481 867 372 867 m 483 651 q 375 623 427 651 q 294 543 323 595 q 265 434 265 491 q 294 326 265 377 q 374 245 323 274 q 483 217 426 217 q 591 245 539 217 q 671 326 643 274 q 700 434 700 377 q 671 543 700 491 q 589 623 642 595 q 483 651 537 651 z "},"r":{"ha":856,"x_min":48,"x_max":809,"o":"m 157 867 l 538 867 q 726 785 644 867 q 807 597 808 703 q 766 408 807 485 q 643 328 725 330 l 777 192 q 809 108 809 160 q 701 0 807 0 l 698 0 q 591 53 644 0 l 374 322 q 319 434 319 380 q 429 543 319 544 l 505 544 q 590 596 591 543 q 505 650 590 650 l 266 650 l 266 109 q 157 0 267 0 q 48 107 48 0 l 48 760 q 157 867 49 867 z "},"s":{"ha":856,"x_min":48,"x_max":810,"o":"m 809 760 q 705 650 809 651 l 374 651 q 264 595 264 650 q 375 545 265 544 l 481 545 q 810 269 809 543 q 482 1 810 3 l 156 1 q 48 108 48 2 q 155 214 49 216 l 482 216 q 592 272 592 217 q 481 327 592 328 l 374 327 q 48 595 48 328 l 48 599 q 374 868 48 867 l 701 868 q 809 760 808 867 z "},"t":{"ha":839,"x_min":39,"x_max":799,"o":"m 148 869 l 697 867 q 799 762 798 866 q 689 650 799 652 l 527 650 l 528 108 q 418 0 526 1 q 310 105 310 0 l 311 650 l 148 650 q 39 759 39 650 q 148 869 40 867 z "},"u":{"ha":859,"x_min":51,"x_max":812,"o":"m 159 869 q 269 764 268 869 l 268 433 q 433 216 269 216 q 595 434 595 217 l 595 760 q 704 869 596 868 q 812 760 812 867 l 812 433 q 433 0 812 0 q 51 433 52 -3 l 51 760 q 159 869 52 867 z "},"v":{"ha":938,"x_min":35,"x_max":902,"o":"m 793 869 q 847 854 821 869 q 887 814 873 840 q 902 760 902 788 q 739 406 902 732 q 562 54 576 79 q 522 14 547 28 q 467 -1 496 -1 q 413 14 439 -1 q 373 54 387 28 q 197 406 359 79 q 35 760 35 732 q 49 814 35 788 q 90 854 64 840 q 143 869 115 869 q 196 854 170 869 q 237 814 222 840 q 467 344 252 788 q 700 814 685 788 q 740 854 714 840 q 793 869 766 869 z "},"w":{"ha":966,"x_min":48,"x_max":917,"o":"m 156 -1 q 48 106 48 -1 l 48 758 q 154 866 48 866 l 157 866 q 265 758 264 865 l 265 376 q 401 513 374 485 q 481 541 429 541 q 562 514 535 541 q 698 374 589 486 l 698 758 q 807 867 700 867 q 917 758 917 865 l 916 106 q 808 -1 916 -1 q 727 26 754 -1 q 483 271 700 54 q 237 26 263 53 q 156 -1 211 0 z "},"x":{"ha":862,"x_min":49,"x_max":818,"o":"m 157 869 q 239 843 212 869 q 432 616 267 817 q 628 846 600 820 q 709 872 655 872 q 791 845 762 872 q 818 768 818 819 l 818 763 q 760 655 818 705 l 576 437 l 761 222 q 818 119 818 168 q 817 111 818 115 l 817 102 q 791 29 817 54 q 708 3 761 1 q 624 31 652 2 q 435 256 596 60 q 242 28 270 56 q 159 0 214 0 l 156 0 q 77 26 105 0 q 50 100 50 52 l 50 109 q 49 116 49 113 q 106 218 49 165 l 299 435 l 106 652 q 49 760 49 703 l 49 765 q 76 842 49 817 q 157 869 104 869 z "},"y":{"ha":847,"x_min":40,"x_max":809,"o":"m 149 869 q 230 843 203 869 q 423 616 258 817 q 619 846 591 820 q 701 872 646 872 q 782 845 753 872 q 809 769 809 819 l 809 763 q 751 655 809 705 l 530 396 l 529 108 q 420 0 527 1 l 415 0 q 313 111 313 0 l 311 397 l 98 652 q 40 760 40 703 l 40 766 q 67 842 40 817 q 149 869 96 869 z "},"z":{"ha":856,"x_min":48,"x_max":808,"o":"m 808 745 q 764 650 804 686 l 397 216 l 713 216 q 808 124 806 214 q 711 1 806 2 l 143 0 q 48 124 50 1 q 93 215 50 180 l 462 650 l 143 650 q 48 745 50 651 q 144 868 48 867 l 715 868 q 808 745 808 868 z "},"{":{"ha":464,"x_min":0,"x_max":0,"o":""},"|":{"ha":361,"x_min":0,"x_max":0,"o":""},"}":{"ha":464,"x_min":0,"x_max":0,"o":""},"~":{"ha":811,"x_min":0,"x_max":0,"o":""},"Ä":{"ha":966,"x_min":49,"x_max":916,"o":"m 157 -1 q 104 13 130 -1 q 63 53 78 27 q 49 108 49 79 q 211 462 49 136 q 387 814 373 788 q 428 854 401 840 q 481 869 454 869 q 536 854 510 869 q 576 814 562 840 q 753 462 590 788 q 916 108 916 136 q 902 53 916 79 q 861 13 887 27 q 808 -1 835 -1 l 157 -1 m 631 218 l 481 524 l 332 218 l 631 218 m 740 1090 q 726 1037 740 1063 q 686 997 711 1011 q 631 982 660 982 q 578 997 604 982 q 538 1037 552 1011 q 524 1090 524 1062 q 538 1144 524 1118 q 578 1184 552 1170 q 631 1198 604 1198 q 686 1184 660 1198 q 726 1143 711 1169 q 740 1090 740 1118 m 434 1090 q 420 1037 434 1063 q 380 997 406 1011 q 326 982 355 982 q 272 997 298 982 q 232 1037 246 1011 q 218 1090 218 1062 q 232 1144 218 1118 q 272 1184 246 1170 q 326 1198 298 1198 q 380 1184 355 1198 q 420 1143 406 1169 q 434 1090 434 1118 z "},"Å":{"ha":926,"x_min":0,"x_max":0,"o":""},"Ç":{"ha":856,"x_min":48,"x_max":808,"o":"m 481 867 l 699 867 q 808 760 807 865 q 699 650 807 650 l 482 650 q 266 433 266 652 q 483 216 266 218 l 699 216 q 807 109 807 214 q 700 0 807 1 l 483 0 q 48 434 49 0 q 480 867 48 867 l 481 867 m 387 -262 q 342 -224 342 -262 q 387 -184 342 -185 l 498 -184 q 521 -165 521 -184 q 498 -145 521 -146 q 419 -117 453 -146 q 385 -49 385 -87 q 429 -9 385 -9 l 432 -9 q 475 -47 475 -9 q 497 -68 475 -68 q 611 -164 611 -68 q 454 -262 610 -262 l 387 -262 z "},"É":{"ha":856,"x_min":48,"x_max":808,"o":"m 157 869 l 706 867 q 808 762 807 866 q 698 650 808 652 l 266 650 l 266 218 l 697 218 q 806 108 806 217 q 699 0 806 1 l 157 0 q 48 105 49 0 l 48 759 q 157 869 49 867 m 318 431 q 425 541 319 540 l 644 541 q 753 433 752 541 q 644 324 751 324 l 426 324 q 318 431 318 323 m 579 1222 q 625 1194 625 1222 q 605 1145 625 1175 l 528 1029 q 401 952 477 952 l 400 952 q 354 980 354 952 q 374 1028 354 998 l 451 1145 q 579 1222 503 1222 z "},"Ñ":{"ha":856,"x_min":49,"x_max":808,"o":"m 172 867 q 267 822 231 862 l 591 408 l 591 772 q 684 867 593 865 q 807 769 806 865 l 808 94 q 684 0 807 1 q 593 45 628 1 l 267 458 l 267 94 q 172 0 266 1 q 49 96 50 0 l 49 772 q 172 867 49 866 m 517 1170 q 548 1181 534 1181 q 583 1160 567 1181 l 584 1158 q 623 1061 623 1105 q 573 975 623 1011 l 572 974 q 503 948 536 948 q 394 1020 446 948 l 366 1057 q 319 1082 338 1097 q 328 1029 300 1068 l 327 1028 q 317 964 355 991 q 288 952 302 952 q 252 974 269 952 q 213 1073 213 1029 q 262 1158 213 1122 q 334 1185 299 1185 q 443 1113 391 1185 l 470 1076 q 517 1050 498 1037 q 508 1103 536 1064 l 506 1105 q 517 1170 479 1142 z "},"Ö":{"ha":966,"x_min":47,"x_max":917,"o":"m 481 867 q 695 811 591 867 q 858 650 799 755 q 917 433 917 546 q 860 217 917 320 q 699 56 802 113 q 481 -1 595 -1 q 266 56 369 -1 q 105 217 162 113 q 47 433 47 320 q 105 650 47 546 q 268 811 163 755 q 481 867 372 867 m 483 651 q 375 623 427 651 q 294 543 323 595 q 265 434 265 491 q 294 326 265 377 q 374 245 323 274 q 483 217 426 217 q 591 245 539 217 q 671 326 643 274 q 700 434 700 377 q 671 543 700 491 q 589 623 642 595 q 483 651 537 651 m 745 1090 q 730 1037 745 1063 q 690 997 716 1011 q 636 982 665 982 q 583 996 608 982 q 543 1036 557 1010 q 529 1090 529 1062 q 543 1144 529 1118 q 583 1184 557 1170 q 636 1198 608 1198 q 690 1183 665 1198 q 730 1143 716 1169 q 745 1090 745 1118 m 439 1090 q 425 1037 439 1063 q 385 997 411 1011 q 331 982 359 982 q 277 996 303 982 q 237 1036 252 1010 q 223 1090 223 1062 q 237 1144 223 1118 q 277 1184 252 1170 q 331 1198 303 1198 q 385 1183 359 1198 q 425 1143 411 1169 q 439 1090 439 1118 z "},"Ü":{"ha":859,"x_min":51,"x_max":812,"o":"m 159 869 q 269 764 268 869 l 268 433 q 433 216 269 216 q 595 434 595 217 l 595 760 q 704 869 596 868 q 812 760 812 867 l 812 433 q 433 0 812 0 q 51 433 52 -3 l 51 760 q 159 869 52 867 m 686 1090 q 671 1037 686 1063 q 631 997 657 1011 q 577 982 606 982 q 524 997 549 982 q 484 1037 498 1011 q 469 1090 469 1062 q 484 1144 469 1118 q 524 1184 498 1170 q 577 1198 549 1198 q 631 1184 606 1198 q 671 1143 657 1169 q 686 1090 686 1118 m 380 1090 q 366 1038 380 1063 q 326 997 352 1012 q 272 982 300 982 q 218 997 244 982 q 178 1037 193 1011 q 164 1090 164 1062 q 178 1144 164 1118 q 218 1184 193 1170 q 272 1198 244 1198 q 326 1184 300 1198 q 366 1143 352 1169 q 380 1090 380 1118 z "},"á":{"ha":966,"x_min":49,"x_max":916,"o":"m 157 -1 q 104 13 130 -1 q 63 53 78 27 q 49 108 49 79 q 211 462 49 136 q 387 814 373 788 q 428 854 401 840 q 481 869 454 869 q 536 854 510 869 q 576 814 562 840 q 753 462 590 788 q 916 108 916 136 q 902 53 916 79 q 861 13 887 27 q 808 -1 835 -1 l 157 -1 m 631 218 l 481 524 l 332 218 l 631 218 m 661 1222 q 707 1194 707 1222 q 687 1145 707 1175 l 610 1029 q 483 952 559 952 l 482 952 q 436 980 436 952 q 456 1028 436 998 l 533 1145 q 661 1222 585 1222 z "},"à":{"ha":966,"x_min":51,"x_max":918,"o":"m 159 -1 q 106 13 132 -1 q 65 53 80 27 q 51 108 51 79 q 213 462 51 136 q 389 814 375 788 q 430 854 404 840 q 484 869 456 869 q 538 854 512 869 q 578 814 564 840 q 755 462 592 788 q 918 108 918 136 q 904 53 918 79 q 863 13 889 27 q 810 -1 837 -1 l 159 -1 m 633 218 l 484 524 l 334 218 l 633 218 m 319 1222 q 447 1145 395 1222 l 524 1028 q 544 980 544 998 q 498 952 544 952 l 497 952 q 370 1029 420 952 l 293 1145 q 273 1194 273 1175 q 319 1222 273 1222 z "},"â":{"ha":966,"x_min":49,"x_max":916,"o":"m 157 -1 q 104 13 130 -1 q 63 53 78 27 q 49 108 49 79 q 211 462 49 136 q 387 814 373 788 q 428 854 401 840 q 481 869 454 869 q 536 854 510 869 q 576 814 562 840 q 753 462 590 788 q 916 108 916 136 q 902 53 916 79 q 861 13 887 27 q 808 -1 835 -1 l 157 -1 m 631 218 l 481 524 l 332 218 l 631 218 m 574 948 q 552 954 563 948 q 534 971 541 960 q 481 1074 528 983 q 431 972 437 984 q 413 955 425 961 q 391 949 402 949 q 368 955 378 949 q 350 972 357 961 q 344 996 344 984 q 389 1098 344 1008 q 441 1199 435 1188 q 458 1216 447 1210 q 481 1223 469 1223 q 505 1216 494 1223 q 522 1199 516 1210 q 575 1098 528 1188 q 621 995 621 1007 q 615 971 621 983 q 598 954 609 960 q 574 948 587 948 z "},"ä":{"ha":966,"x_min":49,"x_max":916,"o":"m 157 -1 q 104 13 130 -1 q 63 53 78 27 q 49 108 49 79 q 211 462 49 136 q 387 814 373 788 q 428 854 401 840 q 481 869 454 869 q 536 854 510 869 q 576 814 562 840 q 753 462 590 788 q 916 108 916 136 q 902 53 916 79 q 861 13 887 27 q 808 -1 835 -1 l 157 -1 m 631 218 l 481 524 l 332 218 l 631 218 m 740 1090 q 726 1037 740 1063 q 686 997 711 1011 q 631 982 660 982 q 578 996 604 982 q 538 1036 552 1010 q 524 1090 524 1062 q 538 1144 524 1118 q 578 1184 552 1170 q 631 1198 604 1198 q 686 1183 660 1198 q 726 1143 711 1169 q 740 1090 740 1118 m 434 1090 q 420 1037 434 1063 q 380 997 406 1011 q 326 982 355 982 q 273 997 298 982 q 233 1037 247 1011 q 218 1090 218 1062 q 233 1144 218 1118 q 273 1184 247 1170 q 326 1198 298 1198 q 380 1184 355 1198 q 420 1143 406 1169 q 434 1090 434 1118 z "},"ã":{"ha":966,"x_min":49,"x_max":916,"o":"m 157 -1 q 104 13 130 -1 q 63 53 78 27 q 49 108 49 79 q 211 462 49 136 q 387 814 373 788 q 428 854 401 840 q 481 869 454 869 q 536 854 510 869 q 576 814 562 840 q 753 462 590 788 q 916 108 916 136 q 902 53 916 79 q 861 13 887 27 q 808 -1 835 -1 l 157 -1 m 631 218 l 481 524 l 332 218 l 631 218 m 571 1170 q 602 1181 587 1181 q 637 1160 621 1181 l 637 1158 q 677 1061 677 1105 q 627 975 677 1011 l 625 974 q 556 948 590 948 q 448 1020 500 948 l 420 1057 q 372 1082 392 1097 q 381 1029 353 1068 l 380 1028 q 370 964 408 991 q 341 952 355 952 q 306 974 322 952 q 267 1073 267 1029 q 316 1158 267 1122 q 387 1185 353 1185 q 496 1113 444 1185 l 524 1076 q 570 1050 552 1037 q 562 1103 589 1064 l 559 1105 q 571 1170 533 1142 z "},"å":{"ha":772,"x_min":0,"x_max":0,"o":""},"ç":{"ha":856,"x_min":48,"x_max":808,"o":"m 481 867 l 699 867 q 808 760 807 865 q 699 650 807 650 l 482 650 q 266 433 266 652 q 483 216 266 218 l 699 216 q 807 109 807 214 q 700 0 807 1 l 483 0 q 48 434 49 0 q 480 867 48 867 l 481 867 m 387 -262 q 342 -223 343 -262 q 387 -184 342 -185 l 498 -184 q 521 -165 521 -184 q 498 -144 521 -145 q 419 -117 453 -146 q 385 -48 386 -87 q 429 -9 385 -9 l 432 -9 q 475 -47 475 -9 q 497 -68 476 -68 q 611 -164 611 -67 q 454 -262 611 -262 l 387 -262 z "},"é":{"ha":856,"x_min":48,"x_max":808,"o":"m 157 869 l 706 867 q 808 762 807 866 q 698 650 808 652 l 266 650 l 266 218 l 697 218 q 806 108 806 217 q 699 0 806 1 l 157 0 q 48 105 49 0 l 48 759 q 157 869 49 867 m 318 431 q 425 541 319 540 l 644 541 q 753 433 752 541 q 644 324 751 324 l 426 324 q 318 431 318 323 m 579 1222 q 625 1194 625 1222 q 605 1145 625 1175 l 528 1029 q 401 952 477 952 l 400 952 q 354 980 354 952 q 374 1028 354 998 l 451 1145 q 579 1222 503 1222 z "},"è":{"ha":856,"x_min":48,"x_max":808,"o":"m 157 869 l 706 867 q 808 762 807 866 q 698 650 808 652 l 266 650 l 266 218 l 697 218 q 806 108 806 217 q 699 0 806 1 l 157 0 q 48 105 49 0 l 48 759 q 157 869 49 867 m 318 431 q 425 541 319 540 l 644 541 q 753 433 752 541 q 644 324 751 324 l 426 324 q 318 431 318 323 m 280 1222 q 408 1145 356 1222 l 486 1028 q 505 980 505 998 q 459 952 505 952 l 458 952 q 331 1029 382 952 l 254 1145 q 234 1194 234 1175 q 280 1222 234 1222 z "},"ê":{"ha":856,"x_min":48,"x_max":808,"o":"m 157 869 l 706 867 q 808 762 807 866 q 698 650 808 652 l 266 650 l 266 218 l 697 218 q 806 108 806 217 q 699 0 806 1 l 157 0 q 48 105 49 0 l 48 759 q 157 869 49 867 m 318 431 q 425 541 319 540 l 644 541 q 753 433 752 541 q 644 324 751 324 l 426 324 q 318 431 318 323 m 532 948 q 509 954 520 948 q 491 971 498 960 q 439 1074 485 983 q 388 972 395 984 q 371 955 382 961 q 348 949 359 949 q 325 955 336 949 q 308 972 314 961 q 301 996 301 984 q 347 1098 301 1008 q 398 1199 392 1188 q 415 1216 404 1210 q 439 1223 427 1223 q 462 1216 451 1223 q 479 1199 473 1210 q 532 1098 486 1188 q 578 995 578 1007 q 572 971 578 983 q 555 954 566 960 q 532 948 544 948 z "},"ë":{"ha":856,"x_min":48,"x_max":808,"o":"m 157 869 l 706 867 q 808 762 807 866 q 698 650 808 652 l 266 650 l 266 218 l 697 218 q 806 108 806 217 q 699 0 806 1 l 157 0 q 48 105 49 0 l 48 759 q 157 869 49 867 m 318 431 q 425 541 319 540 l 644 541 q 753 433 752 541 q 644 324 751 324 l 426 324 q 318 431 318 323 m 686 1090 q 671 1037 686 1063 q 631 997 657 1011 q 577 982 606 982 q 524 996 549 982 q 484 1036 498 1010 q 469 1090 469 1062 q 484 1144 469 1118 q 524 1184 498 1170 q 577 1198 549 1198 q 631 1183 606 1198 q 671 1143 657 1169 q 686 1090 686 1118 m 380 1090 q 366 1037 380 1063 q 326 997 352 1011 q 271 982 300 982 q 218 997 244 982 q 178 1037 193 1011 q 164 1090 164 1062 q 178 1144 164 1118 q 218 1184 193 1170 q 271 1198 244 1198 q 326 1184 300 1198 q 366 1143 352 1169 q 380 1090 380 1118 z "},"í":{"ha":315,"x_min":48,"x_max":375,"o":"m 156 867 q 267 760 264 866 l 267 107 q 157 -3 265 -1 q 49 107 49 0 l 49 759 q 156 867 48 867 m 329 1222 q 375 1194 375 1222 q 355 1145 375 1175 l 278 1029 q 151 952 227 952 l 150 952 q 104 980 104 952 q 123 1028 104 998 l 201 1145 q 329 1222 253 1222 z "},"ì":{"ha":315,"x_min":-58,"x_max":266,"o":"m 156 867 q 267 760 264 866 l 267 107 q 157 -3 265 -1 q 49 107 49 0 l 49 759 q 156 867 48 867 m -12 1222 q 117 1145 64 1222 l 194 1028 q 214 980 214 998 q 168 952 214 952 l 167 952 q 39 1029 90 952 l -37 1145 q -58 1194 -58 1175 q -12 1222 -58 1222 z "},"î":{"ha":315,"x_min":44,"x_max":273,"o":"m 163 867 q 273 760 271 866 l 273 107 q 164 -3 272 -1 q 56 107 56 0 l 56 759 q 163 867 55 867 m 229 948 q 211 954 220 948 q 197 971 202 960 q 155 1074 192 983 q 114 972 119 984 q 100 955 109 961 q 82 949 91 949 q 64 955 72 949 q 50 972 55 961 q 45 996 45 984 q 81 1098 45 1008 q 122 1199 117 1188 q 136 1216 127 1210 q 155 1223 145 1223 q 173 1216 165 1223 q 187 1199 182 1210 q 229 1098 192 1188 q 267 995 267 1007 q 262 971 267 983 q 248 954 257 960 q 229 948 239 948 z "},"ï":{"ha":315,"x_min":-108,"x_max":414,"o":"m 156 867 q 267 760 264 866 l 267 107 q 157 -3 265 -1 q 49 107 49 0 l 49 759 q 156 867 48 867 m 414 1090 q 399 1037 414 1063 q 359 997 385 1011 q 305 982 334 982 q 252 996 277 982 q 212 1036 226 1010 q 197 1090 197 1062 q 212 1144 197 1118 q 252 1184 226 1170 q 305 1198 277 1198 q 359 1183 334 1198 q 399 1143 385 1169 q 414 1090 414 1118 m 108 1090 q 94 1037 108 1063 q 54 997 80 1011 q -1 982 28 982 q -54 997 -28 982 q -94 1037 -79 1011 q -108 1090 -108 1062 q -94 1144 -108 1118 q -54 1184 -79 1170 q -1 1198 -28 1198 q 54 1184 28 1198 q 94 1143 80 1169 q 108 1090 108 1118 z "},"ñ":{"ha":856,"x_min":49,"x_max":808,"o":"m 172 867 q 267 822 231 862 l 591 408 l 591 772 q 684 867 593 865 q 807 769 806 865 l 808 94 q 684 0 807 1 q 593 45 628 1 l 267 458 l 267 94 q 172 0 266 1 q 49 96 50 0 l 49 772 q 172 867 49 866 m 517 1170 q 548 1181 534 1181 q 583 1160 567 1181 l 584 1158 q 623 1061 623 1105 q 573 975 623 1011 l 572 974 q 503 948 536 948 q 394 1020 446 948 l 366 1057 q 319 1082 338 1097 q 328 1029 300 1068 l 327 1028 q 317 964 355 991 q 288 952 302 952 q 252 974 269 952 q 213 1073 213 1029 q 262 1158 213 1122 q 334 1185 299 1185 q 443 1113 391 1185 l 470 1076 q 517 1050 498 1037 q 508 1103 536 1064 l 506 1105 q 517 1170 479 1142 z "},"ó":{"ha":966,"x_min":47,"x_max":917,"o":"m 481 867 q 695 811 591 867 q 858 650 799 755 q 917 433 917 546 q 860 217 917 320 q 699 56 802 113 q 481 -1 595 -1 q 266 56 369 -1 q 105 217 162 113 q 47 433 47 320 q 105 650 47 546 q 268 811 163 755 q 481 867 372 867 m 483 651 q 375 623 427 651 q 294 543 323 595 q 265 434 265 491 q 294 326 265 377 q 374 245 323 274 q 483 217 426 217 q 591 245 539 217 q 671 326 643 274 q 700 434 700 377 q 671 543 700 491 q 589 623 642 595 q 483 651 537 651 m 656 1222 q 703 1194 703 1222 q 682 1145 703 1175 l 606 1029 q 478 952 555 952 l 477 952 q 431 980 431 952 q 451 1028 431 998 l 528 1145 q 656 1222 581 1222 z "},"ò":{"ha":966,"x_min":47,"x_max":917,"o":"m 481 867 q 695 811 591 867 q 858 650 799 755 q 917 433 917 546 q 860 217 917 320 q 699 56 802 113 q 481 -1 595 -1 q 266 56 369 -1 q 105 217 162 113 q 47 433 47 320 q 105 650 47 546 q 268 811 163 755 q 481 867 372 867 m 483 651 q 375 623 427 651 q 294 543 323 595 q 265 434 265 491 q 294 326 265 377 q 374 245 323 274 q 483 217 426 217 q 591 245 539 217 q 671 326 643 274 q 700 434 700 377 q 671 543 700 491 q 589 623 642 595 q 483 651 537 651 m 325 1222 q 453 1145 401 1222 l 530 1028 q 550 980 550 998 q 504 952 550 952 l 503 952 q 376 1029 427 952 l 299 1145 q 279 1194 279 1175 q 325 1222 279 1222 z "},"ô":{"ha":966,"x_min":47,"x_max":917,"o":"m 481 867 q 695 811 591 867 q 858 650 799 755 q 917 433 917 546 q 860 217 917 320 q 699 56 802 113 q 481 -1 595 -1 q 266 56 369 -1 q 105 217 162 113 q 47 433 47 320 q 105 650 47 546 q 268 811 163 755 q 481 867 372 867 m 483 651 q 375 623 427 651 q 294 543 323 595 q 265 434 265 491 q 294 326 265 377 q 374 245 323 274 q 483 217 426 217 q 591 245 539 217 q 671 326 643 274 q 700 434 700 377 q 671 543 700 491 q 589 623 642 595 q 483 651 537 651 m 580 948 q 557 954 568 948 q 539 971 546 960 q 487 1074 533 983 q 436 972 443 984 q 419 955 430 961 q 396 949 408 949 q 373 955 384 949 q 356 972 362 961 q 349 996 349 984 q 395 1098 349 1008 q 446 1199 440 1188 q 464 1216 452 1210 q 487 1223 475 1223 q 510 1216 499 1223 q 528 1199 522 1210 q 580 1098 534 1188 q 627 995 627 1007 q 621 971 627 983 q 603 954 614 960 q 580 948 592 948 z "},"ö":{"ha":966,"x_min":47,"x_max":917,"o":"m 481 867 q 695 811 591 867 q 858 650 799 755 q 917 433 917 546 q 860 217 917 320 q 699 56 802 113 q 481 -1 595 -1 q 266 56 369 -1 q 105 217 162 113 q 47 433 47 320 q 105 650 47 546 q 268 811 163 755 q 481 867 372 867 m 483 651 q 375 623 427 651 q 294 543 323 595 q 265 434 265 491 q 294 326 265 377 q 374 245 323 274 q 483 217 426 217 q 591 245 539 217 q 671 326 643 274 q 700 434 700 377 q 671 543 700 491 q 589 623 642 595 q 483 651 537 651 m 745 1090 q 730 1037 745 1063 q 690 997 716 1011 q 636 982 665 982 q 583 996 608 982 q 543 1036 557 1010 q 528 1090 528 1062 q 543 1144 528 1118 q 583 1184 557 1170 q 636 1198 608 1198 q 690 1183 665 1198 q 730 1143 716 1169 q 745 1090 745 1118 m 439 1090 q 425 1037 439 1063 q 385 997 411 1011 q 330 982 359 982 q 277 997 303 982 q 237 1037 252 1011 q 223 1090 223 1062 q 237 1144 223 1118 q 277 1184 252 1170 q 330 1198 303 1198 q 385 1184 359 1198 q 425 1143 411 1169 q 439 1090 439 1118 z "},"õ":{"ha":966,"x_min":47,"x_max":917,"o":"m 481 867 q 695 811 591 867 q 858 650 799 755 q 917 433 917 546 q 860 217 917 320 q 699 56 802 113 q 481 -1 595 -1 q 266 56 369 -1 q 105 217 162 113 q 47 433 47 320 q 105 650 47 546 q 268 811 163 755 q 481 867 372 867 m 483 651 q 375 623 427 651 q 294 543 323 595 q 265 434 265 491 q 294 326 265 377 q 374 245 323 274 q 483 217 426 217 q 591 245 539 217 q 671 326 643 274 q 700 434 700 377 q 671 543 700 491 q 589 623 642 595 q 483 651 537 651 m 576 1170 q 606 1181 592 1181 q 642 1160 625 1181 l 642 1158 q 682 1061 682 1105 q 631 975 682 1011 l 630 974 q 561 948 595 948 q 452 1020 505 948 l 425 1057 q 377 1082 397 1097 q 386 1029 358 1068 l 385 1028 q 375 964 413 991 q 346 952 360 952 q 311 974 327 952 q 271 1073 271 1029 q 321 1158 271 1122 q 392 1185 357 1185 q 501 1113 449 1185 l 528 1076 q 575 1050 557 1037 q 566 1103 594 1064 l 564 1105 q 576 1170 538 1142 z "},"ú":{"ha":859,"x_min":51,"x_max":812,"o":"m 159 869 q 269 764 268 869 l 268 433 q 433 216 269 216 q 595 434 595 217 l 595 760 q 704 869 596 868 q 812 760 812 867 l 812 433 q 433 0 812 0 q 51 433 52 -3 l 51 760 q 159 869 52 867 m 578 1222 q 624 1194 624 1222 q 604 1145 624 1175 l 527 1029 q 399 952 476 952 l 399 952 q 353 980 353 952 q 372 1028 353 998 l 450 1145 q 578 1222 502 1222 z "},"ù":{"ha":859,"x_min":51,"x_max":812,"o":"m 159 869 q 269 764 268 869 l 268 433 q 433 216 269 216 q 595 434 595 217 l 595 760 q 704 869 596 868 q 812 760 812 867 l 812 433 q 433 0 812 0 q 51 433 52 -3 l 51 760 q 159 869 52 867 m 292 1222 q 420 1145 368 1222 l 497 1028 q 517 980 517 998 q 471 952 517 952 l 470 952 q 342 1029 393 952 l 266 1145 q 245 1194 245 1175 q 292 1222 245 1222 z "},"û":{"ha":859,"x_min":51,"x_max":812,"o":"m 159 869 q 269 764 268 869 l 268 433 q 433 216 269 216 q 595 434 595 217 l 595 760 q 704 869 596 868 q 812 760 812 867 l 812 433 q 433 0 812 0 q 51 433 52 -3 l 51 760 q 159 869 52 867 m 519 948 q 496 954 507 948 q 478 971 485 960 q 426 1074 472 983 q 375 972 382 984 q 358 955 369 961 q 335 949 347 949 q 312 955 323 949 q 295 972 301 961 q 288 996 288 984 q 334 1098 288 1008 q 385 1199 379 1188 q 402 1216 391 1210 q 426 1223 414 1223 q 449 1216 438 1223 q 467 1199 460 1210 q 519 1098 473 1188 q 566 995 566 1007 q 559 971 566 983 q 542 954 553 960 q 519 948 531 948 z "},"ü":{"ha":859,"x_min":51,"x_max":812,"o":"m 159 869 q 269 764 268 869 l 268 433 q 433 216 269 216 q 595 434 595 217 l 595 760 q 704 869 596 868 q 812 760 812 867 l 812 433 q 433 0 812 0 q 51 433 52 -3 l 51 760 q 159 869 52 867 m 686 1090 q 671 1037 686 1063 q 631 997 657 1011 q 577 982 606 982 q 524 996 549 982 q 484 1036 498 1010 q 469 1090 469 1062 q 484 1144 469 1118 q 524 1184 498 1170 q 577 1198 549 1198 q 631 1183 606 1198 q 671 1143 657 1169 q 686 1090 686 1118 m 380 1090 q 366 1037 380 1063 q 326 997 352 1011 q 271 982 300 982 q 218 997 244 982 q 178 1037 193 1011 q 164 1090 164 1062 q 178 1144 164 1118 q 218 1184 193 1170 q 271 1198 244 1198 q 326 1184 300 1198 q 366 1143 352 1169 q 380 1090 380 1118 z "},"†":{"ha":772,"x_min":0,"x_max":0,"o":""},"°":{"ha":555,"x_min":0,"x_max":0,"o":""},"¢":{"ha":772,"x_min":0,"x_max":0,"o":""},"£":{"ha":772,"x_min":0,"x_max":0,"o":""},"§":{"ha":772,"x_min":0,"x_max":0,"o":""},"•":{"ha":486,"x_min":0,"x_max":0,"o":""},"¶":{"ha":746,"x_min":0,"x_max":0,"o":""},"ß":{"ha":861,"x_min":52,"x_max":814,"o":"m 432 867 l 542 867 q 732 786 650 867 q 813 600 813 706 l 813 596 q 757 435 812 487 q 814 275 814 379 l 814 271 q 731 82 812 164 q 549 0 649 0 l 452 0 q 346 109 346 0 q 454 216 346 216 l 541 218 q 595 271 595 218 q 542 326 595 326 l 522 327 q 413 441 412 327 q 522 543 413 544 l 542 542 q 595 602 596 542 q 542 650 596 650 l 397 650 q 267 435 269 628 l 268 105 q 159 0 267 0 q 52 109 52 1 l 52 435 q 427 869 52 869 l 432 869 l 432 867 z "},"®":{"ha":1023,"x_min":0,"x_max":0,"o":""},"©":{"ha":1023,"x_min":0,"x_max":0,"o":""},"™":{"ha":1389,"x_min":0,"x_max":0,"o":""},"´":{"ha":420,"x_min":98,"x_max":370,"o":"m 323 1222 q 370 1194 370 1222 q 349 1145 370 1175 l 273 1029 q 145 952 222 952 l 144 952 q 98 980 98 952 q 118 1028 98 998 l 195 1145 q 323 1222 248 1222 z "},"¨":{"ha":597,"x_min":33,"x_max":555,"o":"m 555 1090 q 541 1037 555 1063 q 500 997 526 1011 q 446 982 475 982 q 393 996 418 982 q 353 1036 367 1010 q 338 1090 338 1062 q 353 1144 338 1118 q 393 1184 367 1170 q 446 1198 418 1198 q 500 1183 475 1198 q 541 1143 526 1169 q 555 1090 555 1118 m 249 1090 q 235 1037 249 1063 q 195 997 221 1011 q 140 982 170 982 q 87 997 113 982 q 47 1037 62 1011 q 33 1090 33 1062 q 47 1144 33 1118 q 87 1184 62 1170 q 140 1198 113 1198 q 195 1184 170 1198 q 235 1143 221 1169 q 249 1090 249 1118 z "},"≠":{"ha":762,"x_min":0,"x_max":0,"o":""},"Æ":{"ha":1389,"x_min":0,"x_max":0,"o":""},"Ø":{"ha":1080,"x_min":0,"x_max":0,"o":""},"∞":{"ha":990,"x_min":0,"x_max":0,"o":""},"±":{"ha":762,"x_min":0,"x_max":0,"o":""},"≤":{"ha":762,"x_min":0,"x_max":0,"o":""},"≥":{"ha":762,"x_min":0,"x_max":0,"o":""},"¥":{"ha":772,"x_min":0,"x_max":0,"o":""},"µ":{"ha":800,"x_min":0,"x_max":0,"o":""},"∂":{"ha":686,"x_min":0,"x_max":0,"o":""},"∑":{"ha":990,"x_min":0,"x_max":0,"o":""},"∏":{"ha":1143,"x_min":0,"x_max":0,"o":""},"∫":{"ha":380,"x_min":0,"x_max":0,"o":""},"ª":{"ha":514,"x_min":0,"x_max":0,"o":""},"º":{"ha":507,"x_min":0,"x_max":0,"o":""},"Ω":{"ha":1067,"x_min":0,"x_max":0,"o":""},"æ":{"ha":1235,"x_min":0,"x_max":0,"o":""},"ø":{"ha":848,"x_min":0,"x_max":0,"o":""},"¿":{"ha":838,"x_min":107,"x_max":757,"o":"m 486 1 q 107 273 108 1 l 107 274 q 382 542 107 543 q 436 599 433 542 q 543 705 436 707 q 652 596 653 707 q 570 407 651 488 q 380 328 488 326 q 325 272 325 326 q 378 218 325 218 l 648 218 q 757 109 755 216 q 648 1 754 1 l 486 1 m 541 762 q 488 775 513 762 q 447 815 462 789 q 433 869 433 841 q 447 923 433 897 q 487 963 461 949 q 541 977 513 977 q 595 963 569 977 q 634 923 621 949 q 648 869 648 897 q 634 815 648 841 q 594 775 620 789 q 541 762 568 762 z "},"¡":{"ha":433,"x_min":107,"x_max":324,"o":"m 216 650 q 324 543 323 650 l 324 109 q 217 0 324 0 l 216 0 q 107 107 107 0 l 107 542 q 216 650 109 650 m 216 975 q 269 961 243 975 q 309 921 294 947 q 323 867 323 895 q 309 814 323 840 q 270 774 295 788 q 216 760 244 760 q 161 774 187 760 q 122 814 136 788 q 108 867 108 840 q 122 921 108 895 q 162 961 136 947 q 216 975 188 975 z "},"¬":{"ha":811,"x_min":0,"x_max":0,"o":""},"√":{"ha":762,"x_min":0,"x_max":0,"o":""},"ƒ":{"ha":772,"x_min":0,"x_max":0,"o":""},"≈":{"ha":762,"x_min":0,"x_max":0,"o":""},"∆":{"ha":850,"x_min":0,"x_max":0,"o":""},"«":{"ha":772,"x_min":0,"x_max":0,"o":""},"»":{"ha":772,"x_min":0,"x_max":0,"o":""},"…":{"ha":1389,"x_min":0,"x_max":0,"o":""},"À":{"ha":966,"x_min":51,"x_max":918,"o":"m 159 -1 q 106 13 132 -1 q 65 53 80 27 q 51 108 51 79 q 213 462 51 136 q 389 814 375 788 q 430 854 404 840 q 484 869 456 869 q 538 854 512 869 q 578 814 564 840 q 755 462 592 788 q 918 108 918 136 q 904 53 918 79 q 863 13 889 27 q 810 -1 837 -1 l 159 -1 m 633 218 l 484 524 l 334 218 l 633 218 m 319 1222 q 447 1145 395 1222 l 524 1028 q 544 980 544 998 q 498 952 544 952 l 497 952 q 370 1029 420 952 l 293 1145 q 273 1194 273 1175 q 319 1222 273 1222 z "},"Ã":{"ha":966,"x_min":49,"x_max":916,"o":"m 157 -1 q 104 13 130 -1 q 63 53 78 27 q 49 108 49 79 q 211 462 49 136 q 387 814 373 788 q 428 854 401 840 q 481 869 454 869 q 536 854 510 869 q 576 814 562 840 q 753 462 590 788 q 916 108 916 136 q 902 53 916 79 q 861 13 887 27 q 808 -1 835 -1 l 157 -1 m 631 218 l 481 524 l 332 218 l 631 218 m 571 1170 q 602 1181 587 1181 q 637 1160 621 1181 l 637 1158 q 677 1061 677 1105 q 627 975 677 1011 l 625 974 q 556 948 590 948 q 448 1020 500 948 l 420 1057 q 372 1082 392 1097 q 381 1029 353 1068 l 380 1028 q 370 964 408 991 q 341 952 355 952 q 306 974 322 952 q 267 1073 267 1029 q 316 1158 267 1122 q 387 1185 353 1185 q 496 1113 444 1185 l 524 1076 q 570 1050 552 1037 q 562 1103 589 1064 l 559 1105 q 571 1170 533 1142 z "},"Õ":{"ha":966,"x_min":47,"x_max":917,"o":"m 481 867 q 695 811 591 867 q 858 650 799 755 q 917 433 917 546 q 860 217 917 320 q 699 56 802 113 q 481 -1 595 -1 q 266 56 369 -1 q 105 217 162 113 q 47 433 47 320 q 105 650 47 546 q 268 811 163 755 q 481 867 372 867 m 483 651 q 375 623 427 651 q 294 543 323 595 q 265 434 265 491 q 294 326 265 377 q 374 245 323 274 q 483 217 426 217 q 591 245 539 217 q 671 326 643 274 q 700 434 700 377 q 671 543 700 491 q 589 623 642 595 q 483 651 537 651 m 576 1170 q 606 1181 592 1181 q 642 1160 625 1181 l 642 1158 q 682 1061 682 1105 q 631 975 682 1011 l 630 974 q 561 948 595 948 q 452 1020 505 948 l 425 1057 q 377 1082 397 1097 q 386 1029 358 1068 l 385 1028 q 375 964 413 991 q 346 952 360 952 q 311 974 327 952 q 271 1073 271 1029 q 321 1158 271 1122 q 392 1185 357 1185 q 501 1113 449 1185 l 528 1076 q 575 1050 557 1037 q 566 1103 594 1064 l 564 1105 q 576 1170 538 1142 z "},"Œ":{"ha":1389,"x_min":0,"x_max":0,"o":""},"œ":{"ha":1311,"x_min":0,"x_max":0,"o":""},"–":{"ha":772,"x_min":0,"x_max":0,"o":""},"—":{"ha":1389,"x_min":0,"x_max":0,"o":""},"“":{"ha":618,"x_min":54,"x_max":560,"o":"m 163 1018 q 271 909 271 1018 l 271 747 q 164 637 271 637 l 163 637 q 54 745 54 637 l 54 909 q 163 1018 56 1018 m 452 1018 q 560 909 559 1018 l 560 747 q 453 637 560 637 l 452 637 q 343 745 343 637 l 343 909 q 452 1018 345 1018 z "},"”":{"ha":618,"x_min":54,"x_max":560,"o":"m 163 1018 q 271 909 271 1018 l 271 747 q 164 637 271 637 l 163 637 q 54 745 54 637 l 54 909 q 163 1018 56 1018 m 452 1018 q 560 909 559 1018 l 560 747 q 453 637 560 637 l 452 637 q 343 745 343 637 l 343 909 q 452 1018 345 1018 z "},"‘":{"ha":320,"x_min":54,"x_max":271,"o":"m 163 1018 q 271 909 271 1018 l 271 747 q 164 637 271 637 l 163 637 q 54 745 54 637 l 54 909 q 163 1018 56 1018 z "},"’":{"ha":320,"x_min":54,"x_max":271,"o":"m 163 1018 q 271 909 271 1018 l 271 747 q 164 637 271 637 l 163 637 q 54 745 54 637 l 54 909 q 163 1018 56 1018 z "},"÷":{"ha":762,"x_min":0,"x_max":0,"o":""},"◊":{"ha":686,"x_min":0,"x_max":0,"o":""},"ÿ":{"ha":847,"x_min":40,"x_max":809,"o":"m 149 869 q 230 843 203 869 q 423 616 258 817 q 619 846 591 820 q 701 872 646 872 q 782 845 753 872 q 809 769 809 819 l 809 763 q 751 655 809 705 l 530 396 l 529 108 q 420 0 527 1 l 415 0 q 313 111 313 0 l 311 397 l 98 652 q 40 760 40 703 l 40 766 q 67 842 40 817 q 149 869 96 869 m 681 1090 q 667 1037 681 1063 q 627 997 652 1011 q 572 982 601 982 q 519 996 545 982 q 479 1036 493 1010 q 465 1090 465 1062 q 479 1144 465 1118 q 519 1184 493 1170 q 572 1198 545 1198 q 627 1183 601 1198 q 667 1143 652 1169 q 681 1090 681 1118 m 375 1090 q 361 1037 375 1063 q 321 997 347 1011 q 267 982 296 982 q 214 997 239 982 q 174 1037 188 1011 q 159 1090 159 1062 q 174 1144 159 1118 q 214 1184 188 1170 q 267 1198 239 1198 q 321 1184 296 1198 q 361 1143 347 1169 q 375 1090 375 1118 z "},"Ÿ":{"ha":847,"x_min":40,"x_max":809,"o":"m 149 869 q 230 843 203 869 q 423 616 258 817 q 619 846 591 820 q 701 872 646 872 q 782 845 753 872 q 809 769 809 819 l 809 763 q 751 655 809 705 l 530 396 l 529 108 q 420 0 527 1 l 415 0 q 313 111 313 0 l 311 397 l 98 652 q 40 760 40 703 l 40 766 q 67 842 40 817 q 149 869 96 869 m 680 1090 q 666 1038 680 1063 q 627 997 652 1012 q 572 982 601 982 q 519 997 545 982 q 479 1037 493 1011 q 465 1090 465 1062 q 479 1144 465 1118 q 519 1184 493 1170 q 572 1198 545 1198 q 627 1184 601 1198 q 666 1143 652 1169 q 680 1090 680 1118 m 375 1090 q 361 1038 375 1063 q 321 997 347 1012 q 267 983 296 983 q 213 997 239 983 q 173 1037 187 1011 q 159 1090 159 1062 q 173 1144 159 1118 q 213 1184 187 1170 q 267 1198 239 1198 q 321 1184 296 1198 q 361 1144 347 1170 q 375 1090 375 1118 z "},"⁄":{"ha":232,"x_min":0,"x_max":0,"o":""},"€":{"ha":890,"x_min":47,"x_max":825,"o":"m 481 540 q 534 526 509 540 q 575 486 560 512 q 589 431 589 460 q 575 378 589 404 q 535 338 561 353 q 481 324 510 324 q 427 338 453 324 q 388 378 401 353 q 374 431 374 404 q 388 486 374 460 q 428 526 402 512 q 481 540 454 540 m 265 434 q 294 326 265 377 q 374 245 323 274 q 483 217 426 217 q 591 245 539 217 q 636 279 616 259 l 638 277 q 664 297 649 289 q 718 311 690 311 q 770 297 745 311 q 811 257 796 283 q 825 203 825 231 q 811 149 825 175 q 781 115 800 128 q 699 56 744 81 q 481 -1 595 -1 q 266 56 369 -1 q 105 217 162 113 q 47 433 47 320 q 105 650 47 546 q 268 811 163 755 q 481 867 372 867 q 695 811 591 867 q 781 750 743 785 q 811 716 799 736 q 825 662 825 690 q 811 608 825 634 q 771 568 797 583 q 718 554 746 554 q 663 568 689 554 q 635 591 647 577 l 635 591 q 589 623 614 610 q 483 651 537 651 q 375 623 427 651 q 294 543 323 595 q 265 434 265 491 z "},"‹":{"ha":463,"x_min":0,"x_max":0,"o":""},"›":{"ha":463,"x_min":0,"x_max":0,"o":""},"":{"ha":694,"x_min":0,"x_max":0,"o":""},"":{"ha":694,"x_min":0,"x_max":0,"o":""},"‡":{"ha":772,"x_min":0,"x_max":0,"o":""},"·":{"ha":386,"x_min":0,"x_max":0,"o":""},"‚":{"ha":309,"x_min":0,"x_max":0,"o":""},"„":{"ha":463,"x_min":0,"x_max":0,"o":""},"‰":{"ha":1389,"x_min":0,"x_max":0,"o":""},"Â":{"ha":966,"x_min":49,"x_max":916,"o":"m 157 -1 q 104 13 130 -1 q 63 53 78 27 q 49 108 49 79 q 211 462 49 136 q 387 814 373 788 q 428 854 401 840 q 481 869 454 869 q 536 854 510 869 q 576 814 562 840 q 753 462 590 788 q 916 108 916 136 q 902 53 916 79 q 861 13 887 27 q 808 -1 835 -1 l 157 -1 m 631 218 l 481 524 l 332 218 l 631 218 m 575 948 q 552 954 563 948 q 534 971 541 960 q 481 1074 528 983 q 431 973 437 984 q 414 956 425 962 q 391 949 402 949 q 368 956 379 949 q 350 973 357 962 q 344 996 344 984 q 389 1098 344 1008 q 441 1199 435 1188 q 458 1217 447 1211 q 481 1223 470 1223 q 505 1217 494 1223 q 523 1199 516 1211 q 575 1098 529 1188 q 622 995 622 1007 q 615 971 622 983 q 598 954 609 960 q 575 948 587 948 z "},"Ê":{"ha":856,"x_min":48,"x_max":808,"o":"m 157 869 l 706 867 q 808 762 807 866 q 698 650 808 652 l 266 650 l 266 218 l 697 218 q 806 108 806 217 q 699 0 806 1 l 157 0 q 48 105 49 0 l 48 759 q 157 869 49 867 m 318 431 q 425 541 319 540 l 644 541 q 753 433 752 541 q 644 324 751 324 l 426 324 q 318 431 318 323 m 532 948 q 509 954 520 948 q 491 971 498 960 q 439 1074 485 983 q 388 973 395 984 q 371 956 382 962 q 348 949 359 949 q 325 956 336 949 q 308 973 314 962 q 301 996 301 984 q 347 1098 301 1008 q 398 1199 392 1188 q 415 1217 404 1211 q 439 1223 427 1223 q 462 1217 451 1223 q 479 1199 473 1211 q 532 1098 486 1188 q 578 995 578 1007 q 572 971 578 983 q 555 954 566 960 q 532 948 544 948 z "},"Á":{"ha":966,"x_min":49,"x_max":916,"o":"m 157 -1 q 104 13 130 -1 q 63 53 78 27 q 49 108 49 79 q 211 462 49 136 q 387 814 373 788 q 428 854 401 840 q 481 869 454 869 q 536 854 510 869 q 576 814 562 840 q 753 462 590 788 q 916 108 916 136 q 902 53 916 79 q 861 13 887 27 q 808 -1 835 -1 l 157 -1 m 631 218 l 481 524 l 332 218 l 631 218 m 661 1222 q 707 1194 707 1222 q 687 1145 707 1175 l 610 1029 q 483 952 559 952 l 482 952 q 436 980 436 952 q 456 1028 436 998 l 533 1145 q 661 1222 585 1222 z "},"Ë":{"ha":856,"x_min":48,"x_max":808,"o":"m 157 869 l 706 867 q 808 762 807 866 q 698 650 808 652 l 266 650 l 266 218 l 697 218 q 806 108 806 217 q 699 0 806 1 l 157 0 q 48 105 49 0 l 48 759 q 157 869 49 867 m 318 431 q 425 541 319 540 l 644 541 q 753 433 752 541 q 644 324 751 324 l 426 324 q 318 431 318 323 m 685 1090 q 671 1037 685 1063 q 631 997 657 1011 q 576 982 606 982 q 523 996 549 982 q 483 1036 497 1010 q 469 1090 469 1061 q 483 1143 469 1118 q 523 1183 497 1169 q 576 1198 549 1198 q 631 1183 606 1198 q 671 1143 657 1169 q 685 1090 685 1118 m 380 1090 q 366 1037 380 1063 q 326 997 351 1011 q 271 982 300 982 q 218 996 243 982 q 178 1036 192 1010 q 164 1090 164 1061 q 178 1144 164 1118 q 218 1184 192 1170 q 271 1198 243 1198 q 326 1183 300 1198 q 366 1143 351 1169 q 380 1090 380 1118 z "},"È":{"ha":856,"x_min":48,"x_max":808,"o":"m 157 869 l 706 867 q 808 762 807 866 q 698 650 808 652 l 266 650 l 266 218 l 697 218 q 806 108 806 217 q 699 0 806 1 l 157 0 q 48 105 49 0 l 48 759 q 157 869 49 867 m 318 431 q 425 541 319 540 l 644 541 q 753 433 752 541 q 644 324 751 324 l 426 324 q 318 431 318 323 m 280 1222 q 408 1145 356 1222 l 486 1028 q 505 980 505 998 q 459 952 505 952 l 458 952 q 331 1029 382 952 l 254 1145 q 234 1194 234 1175 q 280 1222 234 1222 z "},"Í":{"ha":315,"x_min":48,"x_max":375,"o":"m 156 867 q 267 760 264 866 l 267 107 q 157 -3 265 -1 q 49 107 49 0 l 49 759 q 156 867 48 867 m 329 1222 q 375 1194 375 1222 q 355 1145 375 1175 l 278 1029 q 151 952 227 952 l 150 952 q 104 980 104 952 q 123 1028 104 998 l 201 1145 q 329 1222 253 1222 z "},"Î":{"ha":315,"x_min":44,"x_max":267,"o":"m 156 867 q 267 760 264 866 l 267 107 q 157 -3 265 -1 q 49 107 49 0 l 49 759 q 156 867 48 867 m 229 948 q 210 954 219 948 q 196 971 201 960 q 155 1074 191 983 q 114 973 119 984 q 100 956 109 962 q 81 949 91 949 q 63 956 72 949 q 49 973 54 962 q 44 996 44 984 q 80 1098 44 1008 q 122 1199 117 1188 q 136 1216 127 1210 q 155 1223 144 1223 q 173 1216 164 1223 q 187 1199 182 1210 q 229 1098 192 1188 q 267 995 267 1007 q 261 971 267 983 q 247 954 256 960 q 229 948 238 948 z "},"Ï":{"ha":315,"x_min":-108,"x_max":414,"o":"m 156 867 q 267 760 264 866 l 267 107 q 157 -3 265 -1 q 49 107 49 0 l 49 759 q 156 867 48 867 m 414 1090 q 399 1038 414 1063 q 359 997 385 1012 q 305 982 334 982 q 252 997 277 982 q 212 1037 226 1011 q 197 1090 197 1062 q 212 1144 197 1118 q 252 1184 226 1170 q 305 1198 277 1198 q 359 1184 334 1198 q 399 1143 385 1169 q 414 1090 414 1118 m 108 1090 q 94 1038 108 1063 q 54 997 80 1012 q 0 983 28 983 q -54 997 -28 983 q -94 1037 -79 1011 q -108 1090 -108 1062 q -94 1144 -108 1118 q -54 1184 -79 1170 q 0 1198 -28 1198 q 54 1184 28 1198 q 94 1144 80 1170 q 108 1090 108 1118 z "},"Ì":{"ha":315,"x_min":-58,"x_max":266,"o":"m 156 867 q 266 760 264 866 l 266 107 q 157 -3 264 -1 q 48 107 48 0 l 48 759 q 156 867 47 867 m -12 1222 q 117 1145 64 1222 l 194 1028 q 214 980 214 998 q 168 952 214 952 l 167 952 q 39 1029 90 952 l -37 1145 q -58 1194 -58 1175 q -12 1222 -58 1222 z "},"Ó":{"ha":966,"x_min":47,"x_max":917,"o":"m 481 867 q 695 811 591 867 q 858 650 799 755 q 917 433 917 546 q 860 217 917 320 q 699 56 802 113 q 481 -1 595 -1 q 266 56 369 -1 q 105 217 162 113 q 47 433 47 320 q 105 650 47 546 q 268 811 163 755 q 481 867 372 867 m 483 651 q 375 623 427 651 q 294 543 323 595 q 265 434 265 491 q 294 326 265 377 q 374 245 323 274 q 483 217 426 217 q 591 245 539 217 q 671 326 643 274 q 700 434 700 377 q 671 543 700 491 q 589 623 642 595 q 483 651 537 651 m 656 1222 q 703 1194 703 1222 q 682 1145 703 1175 l 606 1029 q 478 952 555 952 l 477 952 q 431 980 431 952 q 451 1028 431 998 l 528 1145 q 656 1222 581 1222 z "},"Ô":{"ha":966,"x_min":47,"x_max":917,"o":"m 481 867 q 695 811 591 867 q 858 650 799 755 q 917 433 917 546 q 860 217 917 320 q 699 56 802 113 q 481 -1 595 -1 q 266 56 369 -1 q 105 217 162 113 q 47 433 47 320 q 105 650 47 546 q 268 811 163 755 q 481 867 372 867 m 483 651 q 375 623 427 651 q 294 543 323 595 q 265 434 265 491 q 294 326 265 377 q 374 245 323 274 q 483 217 426 217 q 591 245 539 217 q 671 326 643 274 q 700 434 700 377 q 671 543 700 491 q 589 623 642 595 q 483 651 537 651 m 581 948 q 557 954 568 948 q 540 971 546 960 q 487 1074 534 983 q 437 972 443 983 q 419 955 431 961 q 396 949 408 949 q 373 955 385 949 q 356 972 362 961 q 349 996 349 983 q 395 1098 349 1008 q 446 1199 440 1188 q 464 1216 452 1210 q 487 1222 475 1222 q 510 1216 499 1222 q 528 1199 522 1210 q 581 1098 534 1188 q 627 995 627 1007 q 621 971 627 983 q 603 954 614 960 q 581 948 592 948 z "},"Ò":{"ha":966,"x_min":47,"x_max":917,"o":"m 481 867 q 695 811 591 867 q 858 650 799 755 q 917 433 917 546 q 860 217 917 320 q 699 56 802 113 q 481 -1 595 -1 q 266 56 369 -1 q 105 217 162 113 q 47 433 47 320 q 105 650 47 546 q 268 811 163 755 q 481 867 372 867 m 483 651 q 375 623 427 651 q 294 543 323 595 q 265 434 265 491 q 294 326 265 377 q 374 245 323 274 q 483 217 426 217 q 591 245 539 217 q 671 326 643 274 q 700 434 700 377 q 671 543 700 491 q 589 623 642 595 q 483 651 537 651 m 325 1222 q 453 1145 401 1222 l 530 1028 q 550 980 550 998 q 504 952 550 952 l 503 952 q 376 1029 427 952 l 299 1145 q 279 1194 279 1175 q 325 1222 279 1222 z "},"Ú":{"ha":859,"x_min":51,"x_max":812,"o":"m 159 869 q 269 764 268 869 l 268 433 q 433 216 269 216 q 595 434 595 217 l 595 760 q 704 869 596 868 q 812 760 812 867 l 812 433 q 433 0 812 0 q 51 433 52 -3 l 51 760 q 159 869 52 867 m 578 1222 q 624 1194 624 1222 q 604 1145 624 1175 l 527 1029 q 399 952 476 952 l 399 952 q 353 980 353 952 q 372 1028 353 998 l 450 1145 q 578 1222 502 1222 z "},"Û":{"ha":859,"x_min":51,"x_max":812,"o":"m 159 869 q 269 764 268 869 l 268 433 q 433 216 269 216 q 595 434 595 217 l 595 760 q 704 869 596 868 q 812 760 812 867 l 812 433 q 433 0 812 0 q 51 433 52 -3 l 51 760 q 159 869 52 867 m 519 948 q 496 954 507 948 q 479 971 485 960 q 427 1074 473 983 q 376 973 382 984 q 358 956 370 962 q 335 949 347 949 q 312 956 323 949 q 295 973 301 962 q 288 996 288 984 q 334 1098 288 1008 q 386 1199 380 1188 q 403 1216 392 1210 q 427 1223 414 1223 q 450 1216 439 1223 q 467 1199 460 1210 q 520 1098 473 1188 q 566 995 566 1007 q 560 971 566 983 q 542 954 553 960 q 519 948 531 948 z "},"Ù":{"ha":859,"x_min":51,"x_max":812,"o":"m 159 869 q 269 764 268 869 l 268 433 q 433 216 269 216 q 595 434 595 217 l 595 760 q 704 869 596 868 q 812 760 812 867 l 812 433 q 433 0 812 0 q 51 433 52 -3 l 51 760 q 159 869 52 867 m 292 1222 q 420 1145 368 1222 l 497 1028 q 517 980 517 998 q 471 952 517 952 l 470 952 q 342 1029 393 952 l 266 1145 q 245 1194 245 1175 q 292 1222 245 1222 z "},"ı":{"ha":315,"x_min":48,"x_max":267,"o":"m 156 867 q 267 760 264 866 l 267 107 q 157 -3 265 -1 q 49 107 49 0 l 49 759 q 156 867 48 867 z "},"ˆ":{"ha":601,"x_min":170,"x_max":448,"o":"m 401 948 q 378 954 389 948 q 360 971 367 960 q 308 1074 354 983 q 257 972 264 984 q 240 955 251 961 q 217 949 229 949 q 194 955 205 949 q 177 972 183 961 q 170 996 170 984 q 216 1098 170 1008 q 267 1199 261 1188 q 284 1216 273 1210 q 308 1223 296 1223 q 331 1216 320 1223 q 349 1199 342 1210 q 401 1098 355 1188 q 448 995 448 1007 q 441 971 448 983 q 424 954 435 960 q 401 948 413 948 z "},"˜":{"ha":463,"x_min":37,"x_max":448,"o":"m 342 1170 q 372 1181 358 1181 q 408 1160 391 1181 l 408 1158 q 448 1061 448 1105 q 397 975 448 1011 l 396 974 q 327 948 361 948 q 218 1020 271 948 l 191 1057 q 143 1082 163 1097 q 152 1029 124 1068 l 151 1028 q 141 964 179 991 q 112 952 126 952 q 77 974 93 952 q 37 1073 37 1029 q 87 1158 37 1122 q 158 1185 123 1185 q 267 1113 215 1185 l 294 1076 q 341 1050 323 1037 q 332 1103 360 1064 l 330 1105 q 342 1170 304 1142 z "},"ˉ":{"ha":463,"x_min":0,"x_max":0,"o":""},"˘":{"ha":463,"x_min":0,"x_max":0,"o":""},"˙":{"ha":463,"x_min":0,"x_max":0,"o":""},"˚":{"ha":463,"x_min":0,"x_max":0,"o":""},"¸":{"ha":463,"x_min":140,"x_max":410,"o":"m 185 -262 q 140 -223 142 -262 q 186 -184 141 -185 l 297 -184 q 319 -165 319 -184 q 296 -144 319 -145 q 218 -117 252 -146 q 184 -48 184 -87 q 227 -9 183 -9 l 231 -9 q 273 -47 273 -9 q 296 -68 275 -68 q 410 -164 410 -67 q 253 -262 410 -262 l 185 -262 z "},"˝":{"ha":463,"x_min":0,"x_max":0,"o":""},"˛":{"ha":463,"x_min":0,"x_max":0,"o":""},"ˇ":{"ha":463,"x_min":0,"x_max":0,"o":""},"Ł":{"ha":772,"x_min":0,"x_max":0,"o":""},"ł":{"ha":309,"x_min":0,"x_max":0,"o":""},"Š":{"ha":926,"x_min":0,"x_max":0,"o":""},"š":{"ha":694,"x_min":0,"x_max":0,"o":""},"Ž":{"ha":848,"x_min":0,"x_max":0,"o":""},"ž":{"ha":694,"x_min":0,"x_max":0,"o":""},"¦":{"ha":361,"x_min":0,"x_max":0,"o":""},"Ð":{"ha":1003,"x_min":0,"x_max":0,"o":""},"ð":{"ha":772,"x_min":0,"x_max":0,"o":""},"Ý":{"ha":926,"x_min":0,"x_max":0,"o":""},"ý":{"ha":694,"x_min":0,"x_max":0,"o":""},"Þ":{"ha":926,"x_min":0,"x_max":0,"o":""},"þ":{"ha":772,"x_min":0,"x_max":0,"o":""},"−":{"ha":811,"x_min":0,"x_max":0,"o":""},"×":{"ha":811,"x_min":0,"x_max":0,"o":""},"¹":{"ha":463,"x_min":0,"x_max":0,"o":""},"²":{"ha":463,"x_min":0,"x_max":0,"o":""},"³":{"ha":463,"x_min":0,"x_max":0,"o":""},"½":{"ha":1158,"x_min":0,"x_max":0,"o":""},"¼":{"ha":1158,"x_min":0,"x_max":0,"o":""},"¾":{"ha":1158,"x_min":0,"x_max":0,"o":""}}}
